<svg width="88" height="88" viewBox="0 0 88 88" fill="none" xmlns="http://www.w3.org/2000/svg">
<circle cx="44" cy="44" r="41.5" fill="#FF62A5" stroke="#FFF7F6" stroke-width="5"/>
<path d="M53.0391 38.0078C53.0391 39.8177 52.5117 41.3281 51.457 42.5391C50.4023 43.737 48.918 44.5443 47.0039 44.9609V45.1172C49.2956 45.4036 51.0143 46.1198 52.1602 47.2656C53.306 48.3984 53.8789 49.9089 53.8789 51.7969C53.8789 54.5443 52.9089 56.6667 50.9688 58.1641C49.0286 59.6484 46.2682 60.3906 42.6875 60.3906C39.5234 60.3906 36.8542 59.8763 34.6797 58.8477V54.7656C35.8906 55.3646 37.1732 55.8268 38.5273 56.1523C39.8815 56.4779 41.1836 56.6406 42.4336 56.6406C44.6471 56.6406 46.3008 56.2305 47.3945 55.4102C48.4883 54.5898 49.0352 53.3203 49.0352 51.6016C49.0352 50.0781 48.4297 48.9583 47.2188 48.2422C46.0078 47.526 44.1068 47.168 41.5156 47.168H39.0352V43.4375H41.5547C46.112 43.4375 48.3906 41.862 48.3906 38.7109C48.3906 37.487 47.9935 36.543 47.1992 35.8789C46.4049 35.2148 45.2331 34.8828 43.6836 34.8828C42.6029 34.8828 41.5612 35.0391 40.5586 35.3516C39.556 35.651 38.3711 36.2435 37.0039 37.1289L34.7578 33.9258C37.375 31.9987 40.4154 31.0352 43.8789 31.0352C46.7565 31.0352 49.0026 31.6536 50.6172 32.8906C52.2318 34.1276 53.0391 35.8333 53.0391 38.0078Z" fill="white"/>
</svg>
