<svg width="88" height="88" viewBox="0 0 88 88" fill="none" xmlns="http://www.w3.org/2000/svg">
<circle cx="44" cy="44" r="41.5" fill="#FF62A5" stroke="#FFF7F6" stroke-width="5"/>
<path d="M54.1133 60H34.7578V56.5234L42.1211 49.1211C44.2956 46.8945 45.7344 45.319 46.4375 44.3945C47.1536 43.457 47.6745 42.5781 48 41.7578C48.3255 40.9375 48.4883 40.0586 48.4883 39.1211C48.4883 37.832 48.0977 36.8164 47.3164 36.0742C46.5482 35.332 45.4805 34.9609 44.1133 34.9609C43.0195 34.9609 41.9583 35.1628 40.9297 35.5664C39.9141 35.9701 38.7357 36.6992 37.3945 37.7539L34.9141 34.7266C36.5026 33.3854 38.0456 32.4349 39.543 31.875C41.0404 31.3151 42.6354 31.0352 44.3281 31.0352C46.9844 31.0352 49.1133 31.7318 50.7148 33.125C52.3164 34.5052 53.1172 36.3672 53.1172 38.7109C53.1172 40 52.8828 41.224 52.4141 42.3828C51.9583 43.5417 51.2487 44.7396 50.2852 45.9766C49.3346 47.2005 47.7461 48.8607 45.5195 50.957L40.5586 55.7617V55.957H54.1133V60Z" fill="white"/>
</svg>
