<svg width="20" height="19" viewBox="0 0 20 19" fill="none" xmlns="http://www.w3.org/2000/svg">
<path fill-rule="evenodd" clip-rule="evenodd" d="M9.99992 18.6668C15.0625 18.6668 19.1666 14.5628 19.1666 9.50016C19.1666 4.43755 15.0625 0.333496 9.99992 0.333496C4.93731 0.333496 0.833252 4.43755 0.833252 9.50016C0.833252 14.5628 4.93731 18.6668 9.99992 18.6668ZM13.9476 7.56326C14.2585 7.224 14.2356 6.69686 13.8964 6.38587C13.5571 6.07487 13.03 6.09779 12.719 6.43706L8.74992 10.7669L7.28088 9.16433C6.96989 8.82506 6.44275 8.80215 6.10349 9.11314C5.76422 9.42413 5.7413 9.95127 6.05229 10.2905L8.13563 12.5633C8.29347 12.7355 8.51633 12.8335 8.74992 12.8335C8.98351 12.8335 9.20638 12.7355 9.36422 12.5633L13.9476 7.56326Z" fill="#30D354"/>
</svg>
