<svg width="22" height="22" viewBox="0 0 22 22" fill="none" xmlns="http://www.w3.org/2000/svg">
<path fill-rule="evenodd" clip-rule="evenodd" d="M11 22C17.0751 22 22 17.0751 22 11C22 4.92487 17.0751 0 11 0C4.92487 0 0 4.92487 0 11C0 17.0751 4.92487 22 11 22ZM15.7372 8.67572C16.1104 8.2686 16.0828 7.63604 15.6757 7.26284C15.2686 6.88965 14.636 6.91715 14.2629 7.32427L9.50001 12.5201L7.73716 10.597C7.36397 10.1899 6.7314 10.1624 6.32428 10.5356C5.91716 10.9088 5.88966 11.5413 6.26285 11.9485L8.76285 14.6757C8.95226 14.8824 9.2197 15 9.50001 15C9.78031 15 10.0478 14.8824 10.2372 14.6757L15.7372 8.67572Z" fill="#3CCC7E"/>
</svg>
