<svg width="22" height="23" viewBox="0 0 22 23" fill="none" xmlns="http://www.w3.org/2000/svg">
<path fill-rule="evenodd" clip-rule="evenodd" d="M0 11.5C0 5.42487 4.92487 0.5 11 0.5C17.0751 0.5 22 5.42487 22 11.5C22 17.5751 17.0751 22.5 11 22.5C4.92487 22.5 0 17.5751 0 11.5ZM15.6727 9.23995C16.0813 8.86844 16.1114 8.23599 15.7399 7.82733C15.3684 7.41868 14.736 7.38856 14.3273 7.76007L9.5 12.1485L7.67267 10.4873C7.26401 10.1158 6.63157 10.1459 6.26006 10.5546C5.88855 10.9633 5.91867 11.5957 6.32733 11.9672L8.82733 14.2399C9.20875 14.5867 9.79125 14.5867 10.1727 14.2399L15.6727 9.23995Z" fill="#FF62A5"/>
</svg>
