<svg width="22" height="22" viewBox="0 0 22 22" fill="none" xmlns="http://www.w3.org/2000/svg">
<path fill-rule="evenodd" clip-rule="evenodd" d="M0 11C0 4.92487 4.92487 0 11 0C17.0751 0 22 4.92487 22 11C22 17.0751 17.0751 22 11 22C4.92487 22 0 17.0751 0 11ZM14.7072 7.29289C15.0977 7.68342 15.0977 8.31658 14.7072 8.70711L12.4142 11.0001L14.7071 13.293C15.0976 13.6835 15.0976 14.3167 14.7071 14.7072C14.3166 15.0977 13.6834 15.0977 13.2929 14.7072L11 12.4143L8.7072 14.7071C8.31668 15.0976 7.68351 15.0976 7.29299 14.7071C6.90246 14.3166 6.90246 13.6834 7.29299 13.2929L9.58579 11.0001L7.29289 8.7072C6.90237 8.31668 6.90237 7.68351 7.29289 7.29299C7.68342 6.90246 8.31658 6.90246 8.70711 7.29299L11 9.58588L13.293 7.29289C13.6835 6.90237 14.3167 6.90237 14.7072 7.29289Z" fill="#DC4A4A"/>
</svg>
